<?xml version="1.0" encoding="UTF-8"?>
<svg id="Layer_2" data-name="Layer 2" xmlns="http://www.w3.org/2000/svg" viewBox="0 0 755.16 135">
  <defs>
    <style>
      .cls-1 {
        fill: #fff;
      }

      .cls-2 {
        fill: blue;
        stroke: blue;
        stroke-miterlimit: 10;
        stroke-width: 7px;
      }

      .cls-3 {
        fill: #0071bc;
      }

      .cls-4 {
        fill: #00a99d;
      }

      .cls-5 {
        fill: #29abe2;
      }
    </style>
  </defs>
  <g id="Layer_1-2" data-name="Layer 1">
    <g id="final">
      <g id="symbol">
        <g>
          <path class="cls-1" d="m3.56,131.44V59.13c.05-14.81,5.84-28.75,16.33-39.24C30.42,9.36,44.42,3.56,59.31,3.56h10.33c14.86,0,28.84,5.78,39.36,16.27,10.52,10.49,16.34,24.45,16.38,39.31v72.3H3.56Z"/>
          <path class="cls-4" d="m69.64,7.12c13.91,0,27,5.41,36.85,15.23,9.85,9.82,15.29,22.88,15.34,36.78v68.74H7.12V59.14c.05-13.87,5.47-26.92,15.28-36.73,9.86-9.86,22.97-15.28,36.9-15.28h10.33m0-7.12h-10.33c-16.38,0-31.2,6.64-41.94,17.37C6.68,28.07.05,42.82,0,59.13v75.87h128.94V59.13c-.1-32.67-26.61-59.13-59.31-59.13h0Z"/>
        </g>
        <path class="cls-3" d="m48.16,121.76H13.52c-.48,0-.87-.39-.87-.87v-61.68c0-1.02,1.45-1.21,1.72-.23.51,1.84,1.02,3.57,1.37,4.43.95,2.32,5.46,5.16,10.45-3.74s11.79-7.88,16.39-7.12,5.7,5.34,14.53,10.86c.36.22.71.44,1.06.64.27.16.44.44.44.76v2.2c0,.39-.25.73-.63.84-6.45,1.86-15.98,5.79-13.09,12.3,5.9,13.28,13.18,6.41,20.06,18.64,8.25,14.67-14.58,22.32-16.52,22.94-.09.03-.17.04-.26.04Z"/>
        <path class="cls-3" d="m117.23,55.14v65.75c0,.48-.39.87-.87.87h-37.67c-.79,0-1.17-.97-.59-1.51,2.86-2.68,7.76-8.83,4.9-17.66-3.92-12.11-17.45-15.67-24.22-17.81-6.77-2.14-12.47-7.84-6.41-11.4,2.7-1.59,5.18-3.11,7.11-4.32.14-.09,1.99-1.38,2.16-1.38l2.15,1.25c.48,0,.87-.39.87-.87h0c0-.56.52-.97,1.07-.85,4.36.93,7.78-.2,10.69-2.91,4.59-4.27,9.04-8.19,20.66-12.11,10.15-3.42,17.96,1.04,19.77,2.22.25.16.4.44.4.73Z"/>
        <g>
          <path class="cls-1" d="m64.65,66.94V17.08c0-.48-.39-.87-.87-.87h-4.31c-.48,0-.87.39-.87.87v47.75"/>
          <path class="cls-5" d="m65.15,66.94h-1V17.08c0-.21-.17-.37-.37-.37h-4.31c-.21,0-.37.17-.37.37v47.75h-1V17.08c0-.76.62-1.37,1.37-1.37h4.31c.76,0,1.37.62,1.37,1.37v49.86Z"/>
        </g>
        <g>
          <rect class="cls-1" x="58.59" y="14.25" width="5.88" height="35.44" transform="translate(29.56 93.5) rotate(-90)"/>
          <path class="cls-5" d="m79.75,35.41h-36.44v-6.88h36.44v6.88Zm-35.44-1h34.44v-4.88h-34.44v4.88Z"/>
        </g>
      </g>
      <g id="text">
        <path class="cls-2" d="m208.17,131.05h-37.17c-4.01,0-7.64-.74-10.88-2.23-3.24-1.48-6.03-3.54-8.36-6.18-2.34-2.64-4.13-5.7-5.4-9.19-1.26-3.49-1.9-7.24-1.9-11.25s.63-7.68,1.9-11.17c1.26-3.49,3.06-6.56,5.4-9.23,2.33-2.66,5.12-4.74,8.36-6.22,3.24-1.48,6.87-2.22,10.88-2.22h37.17v8.24h-37.17c-3.79,0-7.05.92-9.77,2.76-2.72,1.84-4.82,4.33-6.3,7.46-1.48,3.13-2.23,6.59-2.23,10.38s.74,7.24,2.23,10.34c1.48,3.1,3.58,5.59,6.3,7.46,2.72,1.87,5.97,2.8,9.77,2.8h37.17v8.24Z"/>
        <path class="cls-2" d="m225.39,131.05h-8.24v-45.33h8.24v45.33Zm39.39,0h-8.24v-18.46h-27.28v-8.24h27.28v-18.62h8.24v45.33Z"/>
        <path class="cls-2" d="m325.6,85.72v22.66c0,3.13-.59,6.07-1.77,8.82-1.18,2.75-2.8,5.15-4.86,7.21-2.06,2.06-4.45,3.68-7.17,4.86-2.72,1.18-5.64,1.77-8.78,1.77h-4.53c-3.13,0-6.06-.59-8.78-1.77-2.72-1.18-5.11-2.82-7.17-4.9-2.06-2.09-3.68-4.49-4.86-7.21-1.18-2.72-1.77-5.64-1.77-8.78v-22.66h8.24v22.66c0,2.64.65,5.06,1.94,7.25,1.29,2.2,3.02,3.94,5.19,5.23,2.17,1.29,4.57,1.94,7.21,1.94h4.53c2.69,0,5.11-.65,7.25-1.94,2.14-1.29,3.86-3.04,5.15-5.23,1.29-2.2,1.94-4.62,1.94-7.25v-22.66h8.24Z"/>
        <path class="cls-2" d="m390.04,131.05h-11.21l-12.86-12.28h-16.73v-8.16h22.83c2.31,0,4.27-.84,5.89-2.51,1.62-1.68,2.43-3.64,2.43-5.89s-.81-4.27-2.43-5.89c-1.62-1.62-3.58-2.43-5.89-2.43h-27.11v37.17h-8.24v-45.33h35.35c3.08,0,5.85.74,8.32,2.22,2.47,1.48,4.45,3.48,5.93,5.97,1.48,2.5,2.22,5.26,2.22,8.28,0,2.47-.51,4.79-1.53,6.96-1.02,2.17-2.42,4.04-4.2,5.6-1.79,1.57-3.83,2.68-6.14,3.34l13.35,12.94Z"/>
        <path class="cls-2" d="m446.08,131.05h-29.26c-4.23,0-7.94-1.02-11.12-3.05-3.19-2.03-5.66-4.78-7.42-8.24-1.76-3.46-2.64-7.31-2.64-11.54s.88-8.05,2.64-11.46c1.76-3.41,4.23-6.12,7.42-8.16,3.19-2.03,6.89-3.05,11.12-3.05h29.26v8.32h-29.26c-2.64,0-4.92.65-6.84,1.94-1.92,1.29-3.41,3.01-4.45,5.15-1.04,2.14-1.57,4.56-1.57,7.25s.52,5.14,1.57,7.33c1.04,2.2,2.53,3.94,4.45,5.23,1.92,1.29,4.2,1.94,6.84,1.94h29.26v8.32Z"/>
        <path class="cls-2" d="m463.47,131.05h-8.24v-45.33h8.24v45.33Zm39.39,0h-8.24v-18.46h-27.28v-8.24h27.28v-18.62h8.24v45.33Z"/>
        <path class="cls-2" d="m575.47,81.6h-51.51v49.45h-8.24v-57.69h59.75v8.24Zm-7.09,24.72h-40.3v-8.24h40.3v8.24Z"/>
        <path class="cls-2" d="m625.16,131.05h-43.35v-45.33h8.24v37.08h35.11v8.24Z"/>
        <path class="cls-2" d="m684.83,108.3c0,4.18-.87,7.98-2.6,11.41-1.73,3.43-4.16,6.18-7.29,8.24-3.13,2.06-6.79,3.09-10.96,3.09h-14.34c-4.18,0-7.84-1.03-11-3.09-3.16-2.06-5.6-4.81-7.33-8.24-1.73-3.43-2.6-7.24-2.6-11.41s.87-7.97,2.6-11.37c1.73-3.41,4.17-6.13,7.33-8.16,3.16-2.03,6.83-3.05,11-3.05h14.34c4.17,0,7.83,1.02,10.96,3.05,3.13,2.03,5.56,4.75,7.29,8.16,1.73,3.41,2.6,7.2,2.6,11.37Zm-8.24,0c0-2.64-.49-5.05-1.48-7.25-.99-2.2-2.43-3.94-4.33-5.23s-4.16-1.94-6.8-1.94h-14.34c-2.64,0-4.9.65-6.8,1.94s-3.35,3.04-4.37,5.23c-1.02,2.2-1.52,4.62-1.52,7.25s.51,5.05,1.52,7.25c1.02,2.2,2.47,3.96,4.37,5.27s4.16,1.98,6.8,1.98h14.34c2.64,0,4.9-.66,6.8-1.98s3.34-3.08,4.33-5.27c.99-2.2,1.48-4.62,1.48-7.25Z"/>
        <path class="cls-2" d="m751.66,114.48c0,3.02-.74,5.8-2.23,8.32-1.48,2.53-3.49,4.53-6.02,6.02-2.53,1.48-5.33,2.23-8.41,2.23-2.42,0-4.68-.52-6.8-1.57-2.12-1.04-3.94-2.44-5.48-4.2-1.54,1.76-3.41,3.16-5.6,4.2-2.2,1.04-4.56,1.57-7.09,1.57-3.02,0-5.78-.74-8.28-2.23-2.5-1.48-4.51-3.49-6.02-6.02-1.51-2.53-2.27-5.3-2.27-8.32v-28.76h8.24v28.76c0,2.36.81,4.34,2.43,5.93,1.62,1.59,3.58,2.39,5.89,2.39s4.35-.8,5.97-2.39c1.62-1.59,2.43-3.57,2.43-5.93v-28.76h8.32v27.77c0,2.58.8,4.78,2.39,6.59,1.59,1.81,3.54,2.72,5.85,2.72s4.35-.8,5.97-2.39c1.62-1.59,2.43-3.57,2.43-5.93v-28.76h8.24v28.76Z"/>
      </g>
    </g>
  </g>
</svg>