<?xml version="1.0" encoding="UTF-8"?>
<svg id="Layer_2" data-name="Layer 2" xmlns="http://www.w3.org/2000/svg" viewBox="0 0 312.12 255.75">
  <defs>
    <style>
      .cls-1 {
        fill: #fff;
      }

      .cls-2 {
        fill: #c6ff00;
      }

      .cls-3 {
        fill: #263238;
      }
    </style>
  </defs>
  <g id="Pen_Tool_1" data-name="Pen Tool 1">
    <g>
      <g>
        <circle class="cls-2" cx="162.78" cy="117.13" r="75.33"/>
        <g>
          <g>
            <path class="cls-1" d="m162.06,129.45v26.62h-22.58l-13.87-31.97,31.56-74.14h4.9v65.52c-3.39.52-5.99,3.45-5.99,6.98s2.6,6.46,5.99,6.98Zm7.62-79.49h-4.9v65.63c3.12.74,5.44,3.53,5.44,6.88s-2.32,6.14-5.44,6.88v26.72h22.58l13.87-31.97-31.56-74.14Z"/>
            <path class="cls-3" d="m187.36,156.57h-22.58c-.28,0-.5-.22-.5-.5v-26.72c0-.23.16-.43.38-.49,2.98-.71,5.06-3.33,5.06-6.39s-2.08-5.69-5.06-6.39c-.23-.05-.38-.25-.38-.49V49.96c0-.28.22-.5.5-.5h4.9c.2,0,.38.12.46.3l31.56,74.14c.05.13.05.27,0,.4l-13.87,31.97c-.08.18-.26.3-.46.3Zm-22.08-1h21.75l13.66-31.47-31.35-73.63h-4.07v64.74c3.22.94,5.44,3.87,5.44,7.26s-2.22,6.32-5.44,7.26v25.84Zm-3.22,1h-22.58c-.2,0-.38-.12-.46-.3l-13.87-31.97c-.05-.13-.06-.27,0-.4l31.56-74.14c.08-.18.26-.3.46-.3h4.9c.28,0,.5.22.5.5v65.52c0,.25-.18.46-.42.49-3.22.5-5.56,3.23-5.56,6.49s2.34,5.99,5.56,6.49c.24.04.42.25.42.49v26.62c0,.28-.22.5-.5.5Zm-22.25-1h21.75v-25.7c-3.49-.74-5.99-3.79-5.99-7.4s2.49-6.66,5.99-7.4V50.46h-4.07l-31.34,73.63,13.66,31.47Z"/>
          </g>
          <g>
            <rect class="cls-3" x="139.82" y="159.63" width="47.41" height="16.03"/>
            <path class="cls-3" d="m187.23,176.15h-47.41c-.28,0-.5-.22-.5-.5v-16.03c0-.28.22-.5.5-.5h47.41c.28,0,.5.22.5.5v16.03c0,.28-.22.5-.5.5Zm-46.91-1h46.41v-15.03h-46.41v15.03Z"/>
          </g>
          <g>
            <g>
              <path class="cls-3" d="m170.22,122.47c0,3.34-2.32,6.14-5.44,6.88v26.72h22.58l13.87-31.97-9.13-21.44c-7.45,5.91-15.31,11.2-23.08,15.88.76,1.12,1.2,2.48,1.2,3.93Z"/>
              <path class="cls-3" d="m187.36,156.57h-22.58c-.28,0-.5-.22-.5-.5v-26.72c0-.23.16-.43.38-.49,2.98-.71,5.06-3.33,5.06-6.39,0-1.31-.38-2.57-1.11-3.66-.08-.11-.1-.25-.07-.39.03-.13.11-.25.23-.32,8.4-5.05,16.15-10.38,23.03-15.84.12-.1.28-.13.43-.09.15.04.28.15.34.29l9.13,21.44c.05.13.05.27,0,.4l-13.87,31.97c-.08.18-.26.3-.46.3Zm-22.08-1h21.75l13.66-31.47-8.79-20.64c-6.66,5.25-14.12,10.37-22.19,15.24.66,1.14,1,2.44,1,3.77,0,3.39-2.22,6.32-5.44,7.26v25.84Z"/>
            </g>
            <g>
              <path class="cls-3" d="m139.48,156.07h22.58v-26.62c-2.35-.36-4.32-1.89-5.31-3.97-9.33,4.98-18.09,9-25.32,12.05l8.04,18.53Z"/>
              <path class="cls-3" d="m162.06,156.57h-22.58c-.2,0-.38-.12-.46-.3l-8.04-18.53c-.05-.12-.06-.26,0-.38.05-.12.15-.22.27-.28,8.69-3.68,17.2-7.73,25.27-12.04.12-.06.26-.08.39-.03.13.04.24.14.29.26.94,1.98,2.78,3.35,4.93,3.69.24.04.42.25.42.49v26.62c0,.28-.22.5-.5.5Zm-22.25-1h21.75v-25.7c-2.13-.45-3.96-1.8-5.02-3.7-7.82,4.16-16.04,8.07-24.44,11.64l7.71,17.77Z"/>
            </g>
          </g>
        </g>
      </g>
      <g>
        <path class="cls-3" d="m272.78,117.13h-4c0-58.45-47.55-106-106-106S56.78,58.68,56.78,117.13h-4c0-60.65,49.35-110,110-110s110,49.35,110,110Z"/>
        <rect class="cls-3" x="96.52" y="7.13" width="132.53" height="4"/>
        <g>
          <circle class="cls-1" cx="162.78" cy="9.13" r="7.13"/>
          <path class="cls-3" d="m162.78,18.26c-5.03,0-9.13-4.1-9.13-9.13s4.1-9.13,9.13-9.13,9.13,4.1,9.13,9.13-4.1,9.13-9.13,9.13Zm0-14.26c-2.83,0-5.13,2.3-5.13,5.13s2.3,5.13,5.13,5.13,5.13-2.3,5.13-5.13-2.3-5.13-5.13-5.13Z"/>
        </g>
        <g>
          <circle class="cls-1" cx="97.38" cy="9.13" r="7.13"/>
          <path class="cls-3" d="m97.38,18.26c-5.03,0-9.13-4.1-9.13-9.13S92.35,0,97.38,0s9.13,4.1,9.13,9.13-4.1,9.13-9.13,9.13Zm0-14.26c-2.83,0-5.13,2.3-5.13,5.13s2.3,5.13,5.13,5.13,5.13-2.3,5.13-5.13-2.3-5.13-5.13-5.13Z"/>
        </g>
        <g>
          <circle class="cls-1" cx="228.12" cy="9.13" r="7.13"/>
          <path class="cls-3" d="m228.12,18.26c-5.03,0-9.13-4.1-9.13-9.13s4.1-9.13,9.13-9.13,9.13,4.1,9.13,9.13-4.09,9.13-9.13,9.13Zm0-14.26c-2.83,0-5.13,2.3-5.13,5.13s2.3,5.13,5.13,5.13,5.13-2.3,5.13-5.13-2.3-5.13-5.13-5.13Z"/>
        </g>
      </g>
      <g>
        <circle class="cls-2" cx="279.45" cy="137.8" r="32.67" transform="translate(-15.59 237.96) rotate(-45)"/>
        <path class="cls-3" d="m273.97,163.42c-.78,0-1.43-.6-1.49-1.39l-3.13-44.39c-.05-.65.33-1.25.93-1.49.6-.24,1.29-.07,1.7.42l28.07,33.3c.53.63.45,1.57-.18,2.11-.63.53-1.57.45-2.11-.18l-25.12-29.79,2.8,39.81c.06.82-.56,1.54-1.39,1.6-.04,0-.07,0-.11,0Z"/>
      </g>
      <g>
        <circle class="cls-2" cx="227.04" cy="221.75" r="32.67" transform="translate(-87.53 263.82) rotate(-51.94)"/>
        <g>
          <g>
            <g>
              <path class="cls-1" d="m245.53,221.4l9.36-9.36,7.94,7.94-6.36,16.12-37.16,14.97-1.72-1.72,23.04-23.04c1.38,1.01,3.32.89,4.56-.35,1.24-1.24,1.36-3.18.35-4.56Zm-30.62,25.27l1.72,1.72,23.07-23.07c-.84-1.36-.67-3.16.5-4.33,1.18-1.18,2.98-1.34,4.33-.5l9.4-9.4-7.94-7.94-16.12,6.36-14.97,37.16Z"/>
              <path class="cls-3" d="m219.31,251.57c-.13,0-.26-.05-.35-.15l-1.72-1.72c-.09-.09-.15-.22-.15-.35s.05-.26.15-.35l23.04-23.04c.17-.17.45-.19.65-.05,1.21.88,2.85.76,3.91-.3,1.06-1.06,1.18-2.7.3-3.91-.15-.2-.12-.47.05-.65l9.36-9.36c.2-.2.51-.2.71,0l7.94,7.94c.14.14.18.35.11.54l-6.36,16.12c-.05.13-.15.23-.28.28l-37.16,14.97c-.06.02-.12.04-.19.04Zm-1.01-2.22l1.13,1.13,36.66-14.77,6.16-15.61-7.35-7.35-8.72,8.72c.91,1.56.67,3.54-.64,4.85s-3.28,1.54-4.85.64l-22.4,22.4Zm-1.66-.46h0c-.13,0-.26-.05-.35-.15l-1.72-1.72c-.14-.14-.19-.35-.11-.54l14.97-37.16c.05-.13.15-.23.28-.28l16.12-6.36c.19-.07.4-.03.54.11l7.94,7.94c.2.2.2.51,0,.71l-9.4,9.4c-.16.17-.42.19-.62.07-1.19-.74-2.72-.56-3.71.43s-1.17,2.52-.43,3.71c.12.2.09.45-.07.62l-23.07,23.07c-.09.09-.22.15-.35.15Zm-1.13-2.34l1.13,1.14,22.46-22.46c-.75-1.53-.46-3.37.77-4.6,1.23-1.23,3.07-1.52,4.6-.77l8.78-8.78-7.35-7.35-15.61,6.16-14.77,36.66Z"/>
            </g>
            <g>
              <rect class="cls-3" x="246.66" y="203.47" width="23.57" height="7.97" transform="translate(294.5 536.9) rotate(-135)"/>
              <path class="cls-3" d="m263.96,219.11c-.13,0-.26-.05-.35-.15l-16.67-16.67c-.2-.2-.2-.51,0-.71l5.63-5.63c.2-.2.51-.2.71,0l16.67,16.67c.2.2.2.51,0,.71l-5.63,5.63c-.1.1-.23.15-.35.15Zm-15.96-17.17l15.96,15.96,4.93-4.93-15.96-15.96-4.93,4.93Z"/>
            </g>
          </g>
          <path class="cls-3" d="m213.35,253.26c-.14,0-.29-.02-.44-.07-.14-.04-14-4.43-12.48-17.43.71-6.08,3.84-9.66,6.86-13.12,3.22-3.68,6.26-7.16,6.48-13.72.4-12.02-9.38-14.7-9.8-14.81-.8-.21-1.28-1.02-1.07-1.82.2-.8,1.01-1.28,1.81-1.08.13.03,12.53,3.33,12.05,17.8-.25,7.63-3.79,11.68-7.21,15.59-2.85,3.26-5.54,6.34-6.14,11.5-1.23,10.51,9.91,14.08,10.39,14.22.79.24,1.23,1.08.99,1.87-.2.64-.79,1.06-1.43,1.06Z"/>
        </g>
      </g>
      <g>
        <circle class="cls-2" cx="96.12" cy="223.09" r="32.67" transform="translate(-48.05 27.58) rotate(-13.1)"/>
        <g>
          <g>
            <g>
              <path class="cls-1" d="m111.38,221.97l9.36-9.36,7.94,7.94-6.36,16.12-37.16,14.97-1.72-1.72,23.04-23.04c1.38,1.01,3.32.89,4.56-.35s1.36-3.18.35-4.56Zm-30.62,25.27l1.72,1.72,23.07-23.07c-.84-1.36-.67-3.16.5-4.33s2.97-1.34,4.33-.5l9.4-9.4-7.94-7.94-16.12,6.36-14.97,37.16Z"/>
              <path class="cls-3" d="m85.15,252.14c-.13,0-.26-.05-.35-.15l-1.72-1.72c-.2-.2-.2-.51,0-.71l23.04-23.04c.17-.17.45-.19.65-.05,1.21.88,2.85.76,3.91-.3,1.06-1.06,1.18-2.7.3-3.91-.15-.2-.12-.47.05-.65l9.36-9.36c.19-.19.52-.19.71,0l7.94,7.94c.14.14.18.35.11.54l-6.36,16.12c-.05.13-.15.23-.28.28l-37.16,14.97c-.06.02-.12.04-.19.04Zm-1.01-2.22l1.13,1.13,36.66-14.77,6.16-15.61-7.35-7.35-8.72,8.72c.91,1.56.67,3.54-.64,4.85-1.31,1.31-3.28,1.55-4.85.64l-22.4,22.4Zm-1.66-.46c-.13,0-.26-.05-.35-.15l-1.72-1.72c-.14-.14-.19-.35-.11-.54l14.97-37.16c.05-.13.15-.23.28-.28l16.12-6.36c.19-.07.4-.03.54.11l7.94,7.94c.09.09.15.22.15.35s-.05.26-.15.35l-9.4,9.39c-.16.16-.42.19-.62.07-1.2-.74-2.72-.56-3.71.43-.99.99-1.17,2.52-.43,3.71.12.2.09.45-.07.62l-23.07,23.07c-.1.1-.23.15-.35.15Zm-1.13-2.34l1.13,1.13,22.46-22.46c-.75-1.53-.46-3.37.77-4.6s3.07-1.52,4.6-.77l8.78-8.78-7.35-7.35-15.61,6.16-14.77,36.66Z"/>
            </g>
            <g>
              <rect class="cls-3" x="112.5" y="204.04" width="23.57" height="7.97" transform="translate(65.07 443.01) rotate(-135)"/>
              <path class="cls-3" d="m129.8,219.68c-.13,0-.26-.05-.35-.15l-16.67-16.67c-.2-.2-.2-.51,0-.71l5.63-5.63c.2-.2.51-.2.71,0l16.67,16.67c.2.2.2.51,0,.71l-5.63,5.63c-.1.1-.23.15-.35.15Zm-15.96-17.17l15.96,15.96,4.93-4.93-15.96-15.96-4.93,4.93Z"/>
            </g>
          </g>
          <rect class="cls-3" x="69.21" y="207.35" width="3.98" height="28.88"/>
          <rect class="cls-3" x="69.21" y="207.35" width="3.98" height="28.88" transform="translate(292.99 150.58) rotate(90)"/>
        </g>
      </g>
      <g>
        <circle class="cls-2" cx="40.78" cy="135.8" r="32.67" transform="translate(-99.83 117.57) rotate(-65.9)"/>
        <g>
          <g>
            <g>
              <path class="cls-1" d="m54.61,131.88l9.36-9.36,7.94,7.94-6.36,16.12-37.16,14.97-1.72-1.72,23.04-23.04c1.38,1.01,3.32.89,4.56-.35s1.36-3.18.35-4.56Zm-30.62,25.27l1.72,1.72,23.07-23.07c-.84-1.36-.67-3.16.5-4.33,1.18-1.18,2.98-1.34,4.33-.5l9.4-9.4-7.94-7.94-16.12,6.36-14.97,37.16Z"/>
              <path class="cls-3" d="m28.39,162.05c-.13,0-.26-.05-.35-.15l-1.72-1.72c-.09-.09-.15-.22-.15-.35s.05-.26.15-.35l23.04-23.04c.17-.17.45-.19.65-.05,1.21.88,2.85.76,3.91-.3s1.18-2.7.3-3.91c-.15-.2-.12-.47.05-.65l9.36-9.36c.09-.09.22-.15.35-.15h0c.13,0,.26.05.35.15l7.94,7.94c.14.14.18.35.11.54l-6.36,16.12c-.05.13-.15.23-.28.28l-37.16,14.97c-.06.02-.12.04-.19.04Zm-1.02-2.22l1.13,1.13,36.66-14.77,6.16-15.61-7.35-7.35-8.72,8.72c.91,1.56.67,3.54-.64,4.85-1.31,1.3-3.28,1.54-4.85.64l-22.4,22.4Zm-1.66-.46c-.13,0-.26-.05-.35-.15l-1.72-1.72c-.14-.14-.19-.35-.11-.54l14.97-37.16c.05-.13.15-.23.28-.28l16.12-6.36c.18-.07.4-.03.54.11l7.94,7.94c.2.2.2.51,0,.71l-9.4,9.4c-.16.16-.42.19-.62.07-1.19-.74-2.72-.56-3.71.43-.99.99-1.17,2.52-.43,3.71.12.2.09.45-.07.62l-23.07,23.07c-.1.1-.23.15-.35.15Zm-1.13-2.34l1.13,1.13,22.46-22.46c-.75-1.53-.46-3.37.77-4.6,1.23-1.23,3.07-1.52,4.6-.77l8.78-8.78-7.35-7.35-15.61,6.16-14.77,36.66Z"/>
            </g>
            <g>
              <rect class="cls-3" x="55.74" y="113.95" width="23.57" height="7.97" transform="translate(31.88 249.07) rotate(-135)"/>
              <path class="cls-3" d="m73.04,129.59c-.13,0-.26-.05-.35-.15l-16.67-16.67c-.09-.09-.15-.22-.15-.35s.05-.26.15-.35l5.64-5.64c.19-.19.52-.19.71,0l16.67,16.67c.2.2.2.51,0,.71l-5.63,5.63c-.1.1-.23.15-.35.15Zm-15.96-17.17l15.96,15.96,4.93-4.93-15.96-15.96-4.93,4.93Z"/>
            </g>
          </g>
          <rect class="cls-3" x="12.45" y="117.25" width="3.98" height="28.88" transform="translate(146.13 117.25) rotate(90)"/>
        </g>
      </g>
    </g>
  </g>
</svg>