<?xml version="1.0" encoding="UTF-8"?>
<svg id="Layer_2" data-name="Layer 2" xmlns="http://www.w3.org/2000/svg" viewBox="0 0 360.63 368.15">
  <g id="Layer_1-2" data-name="Layer 1">
    <g>
      <path d="m292,171.21v115.76c0,23.75-19.25,43-43,43H82c-23.75,0-43-19.25-43-43V125.33c0-23.75,19.25-43,43-43h95.98l38.18-38.18H43C19.25,44.15,0,63.4,0,87.15v238c0,23.75,19.25,43,43,43h245c23.75,0,43-19.25,43-43v-192.94l-39,39Z"/>
      <g>
        <g>
          <path d="m349.49,64.87l-169,169c-11.6,11.6-28.81,14.14-42.87,7.62,6.67,1,13.7-1.07,18.83-6.2L335.35,56.38c4.3-4.3,6.45-9.93,6.45-15.56,0-5.63-2.15-11.26-6.45-15.56-8.59-8.59-22.52-8.59-31.11,0L125.34,204.17c-4.95,4.95-7.04,11.67-6.29,18.11,0,0,0,0,0,.01.02.25.05.47.08.71-2.97-6.39-4.07-13.44-3.27-20.32,0,0,0-.02,0-.04.93-8.23,4.57-16.21,10.88-22.51L295.75,11.13C303.18,3.71,312.9,0,322.62,0c9.72,0,19.45,3.71,26.87,11.13,14.84,14.84,14.84,38.9,0,53.74Z"/>
          <path d="m158.84,245.68l-62.79,13.97,20.96-66.65.02.02c-3.18,16.16-.06,31.32,10.07,41.44,8.06,8.06,19.32,11.69,31.75,11.22Z"/>
        </g>
        <path d="m205.25,186.49c-6.24-1.8-12.13-5.17-17.05-10.09-6.63-6.63-10.44-15.02-11.43-23.66-1.34-11.67,2.47-23.83,11.43-32.78,8.95-8.95,21.11-12.76,32.78-11.43l10.52-10.52c-6.63-2.09-13.59-2.81-20.44-2.18l-46.99,46.99c-.63,6.85.1,13.82,2.18,20.44,2.43,7.72,6.7,14.99,12.83,21.11,5.01,5.01,10.79,8.78,16.96,11.32,5.99,2.47,12.35,3.77,18.73,3.9l13.23-13.23c-7.4,2.26-15.33,2.29-22.75.13Zm58.69-58.69l-9.21,9.21c2.16,7.42,2.13,15.35-.13,22.75l13.23-13.23c-.13-6.38-1.43-12.74-3.9-18.73Z"/>
      </g>
    </g>
  </g>
</svg>